<svg width="25" height="21" viewBox="0 0 25 21" fill="none" xmlns="http://www.w3.org/2000/svg">
<path fill-rule="evenodd" clip-rule="evenodd" d="M0.87915 1C0.87915 0.447715 1.32687 0 1.87915 0H23.484C24.0363 0 24.484 0.447715 24.484 1C24.484 1.55228 24.0363 2 23.484 2H1.87915C1.32687 2 0.87915 1.55228 0.87915 1ZM0.87915 10.3621C0.87915 9.80981 1.32687 9.36209 1.87915 9.36209H23.484C24.0363 9.36209 24.484 9.80981 24.484 10.3621C24.484 10.9144 24.0363 11.3621 23.484 11.3621H1.87915C1.32687 11.3621 0.87915 10.9144 0.87915 10.3621ZM1.87915 18.7242C1.32687 18.7242 0.87915 19.1719 0.87915 19.7242C0.87915 20.2765 1.32687 20.7242 1.87915 20.7242H23.484C24.0363 20.7242 24.484 20.2765 24.484 19.7242C24.484 19.1719 24.0363 18.7242 23.484 18.7242H1.87915Z" fill="#444444"/>
</svg>
